<?xml version="1.0" standalone="no"?><!DOCTYPE svg PUBLIC "-//W3C//DTD SVG 1.1//EN" "http://www.w3.org/Graphics/SVG/1.1/DTD/svg11.dtd"><svg t="1644766569022" class="icon" viewBox="0 0 1024 1024" version="1.1" xmlns="http://www.w3.org/2000/svg" p-id="3022" xmlns:xlink="http://www.w3.org/1999/xlink" width="200" height="200"><defs><style type="text/css"></style></defs><path d="M832 896H192a64.07 64.07 0 0 1-64-64V192a64.07 64.07 0 0 1 64-64h530.75A63.61 63.61 0 0 1 768 146.74L877.25 256A63.58 63.58 0 0 1 896 301.25V832a64.07 64.07 0 0 1-64 64z m-64-64h64V301.25L722.75 192H704v128a64.07 64.07 0 0 1-64 64H384a64.07 64.07 0 0 1-64-64V192H192v640h64V576a64.07 64.07 0 0 1 64-64h384a64.07 64.07 0 0 1 64 64z m-448 0h384V576H320z m64-640v128h256V192h-64v32a32 32 0 0 1-64 0v-32z" fill="#f56a6a" p-id="3023"></path></svg>