<?xml version="1.0" standalone="no"?><!DOCTYPE svg PUBLIC "-//W3C//DTD SVG 1.1//EN" "http://www.w3.org/Graphics/SVG/1.1/DTD/svg11.dtd"><svg t="1644503804051" class="icon" viewBox="0 0 1024 1024" version="1.1" xmlns="http://www.w3.org/2000/svg" p-id="1462" xmlns:xlink="http://www.w3.org/1999/xlink" width="200" height="200"><defs><style type="text/css"></style></defs><path d="M946.858667 482.858667c0 8.533333-3.413333 16.725333-9.472 22.741333l-395.946667 397.056a29.269333 29.269333 0 0 1-21.845333 9.557333 31.701333 31.701333 0 0 1-22.784-9.6l-27.904-26.197333a12.117333 12.117333 0 0 1-0.298667-17.493333l457.088-457.386667c7.765333-7.765333 21.205333-2.304 21.205333 8.576v72.789333z m-507.904 299.434666l-22.698667 20.266667a18.986667 18.986667 0 0 1-25.770667-0.597333l-301.44-294.272a39.168 39.168 0 0 1-11.818666-28.16V424.618667c0-19.797333 24.149333-29.781333 38.4-15.829334l319.957333 312.405334c5.546667 5.546667 14.933333 16.896 14.933333 30.592 0 8.746667-2.005333 21.12-11.52 30.592zM169.514667 212.778667l103.722666-102.485334a12.458667 12.458667 0 0 1 17.493334 0l347.264 343.253334a93.44 93.44 0 0 1 0 133.12l-103.68 102.442666a12.501333 12.501333 0 0 1-17.408 0l-347.306667-343.338666a92.672 92.672 0 0 1-27.733333-66.56c0-25.173333 9.813333-48.810667 27.648-66.432z m410.965333 58.666666l108.373333-107.093333a95.616 95.616 0 0 1 80.938667-26.581333c21.333333 2.901333 40.789333 13.909333 56.021333 28.970666l109.696 108.458667a12.117333 12.117333 0 0 1 0 17.322667l-166.826666 164.992a12.373333 12.373333 0 0 1-17.493334 0l-170.709333-168.789334a12.16 12.16 0 0 1 0-17.28zM1011.2 251.093333L769.706667 8.106667a25.728 25.728 0 0 0-36.352-0.085334l-191.701334 191.36a38.314667 38.314667 0 0 1-53.845333 0.085334L296.106667 10.112a25.728 25.728 0 0 0-35.925334-0.085333L13.226667 250.496c-8.533333 8.277333-13.226667 19.541333-13.226667 31.274667v227.84c0 11.562667 4.693333 22.784 13.013333 30.976l481.152 475.52a25.728 25.728 0 0 0 36.096 0L1011.029333 540.586667c8.277333-8.234667 12.970667-19.413333 12.970667-31.018667V281.856c0-11.52-4.522667-22.570667-12.714667-30.72z" p-id="1463" fill="#f56a6a"></path></svg>