<?xml version="1.0" standalone="no"?><!DOCTYPE svg PUBLIC "-//W3C//DTD SVG 1.1//EN" "http://www.w3.org/Graphics/SVG/1.1/DTD/svg11.dtd"><svg t="1644493374908" class="icon" viewBox="0 0 1024 1024" version="1.1" xmlns="http://www.w3.org/2000/svg" p-id="4437" xmlns:xlink="http://www.w3.org/1999/xlink" width="200" height="200"><defs><style type="text/css"></style></defs><path d="M636.319113 153.471033H573.769995V13.86398a253.420655 253.420655 0 0 1 62.549118 139.607053z" fill="#f56a6a" p-id="4438"></path><path d="M573.769995 0v209.894207a8.060453 8.060453 0 0 1-8.060453 8.060453h-112.846348a8.060453 8.060453 0 0 1-8.060453-8.060453V0a251.486146 251.486146 0 0 0-128.967255 82.861461 254.710327 254.710327 0 0 0 64.483627 381.420655v430.75063a128.967254 128.967254 0 0 0 16.765743 64.483627 119.29471 119.29471 0 0 0 27.083124 32.241813 128.967254 128.967254 0 0 0 214.085642-96.72544V469.118388A255.032746 255.032746 0 0 0 573.769995 0z m32.241814 413.017632l-32.241814 18.700252v463.314862a64.483627 64.483627 0 0 1-64.483627 64.483627 64.483627 64.483627 0 0 1-51.586902-24.503779 61.904282 61.904282 0 0 1-12.896725-38.367758V429.460957l-32.241814-18.700252A189.904282 189.904282 0 0 1 321.316594 247.617128v-14.508816a191.516373 191.516373 0 0 1 24.181361-79.637279A195.707809 195.707809 0 0 1 380.319113 109.622166v100.272041a72.544081 72.544081 0 0 0 72.544081 72.54408h112.846348a72.221662 72.221662 0 0 0 66.418136-43.848866 67.062972 67.062972 0 0 0 5.803526-28.050378V104.463476a188.292191 188.292191 0 0 1 61.581864 112.846348 158.307305 158.307305 0 0 1 2.901763 30.307304 191.193955 191.193955 0 0 1-96.080604 165.400504z" fill="#f56a6a" p-id="4439"></path><path d="M509.286368 830.549118a32.241814 32.241814 0 0 0-32.241814 32.241814 32.241814 32.241814 0 0 0 17.088161 28.372796 30.307305 30.307305 0 0 0 15.153653 3.869018 32.241814 32.241814 0 1 0 0-64.483628z" fill="#f56a6a" p-id="4440"></path></svg>