<?xml version="1.0" encoding="utf-8"?>
<!-- Generator: Adobe Illustrator 26.0.1, SVG Export Plug-In . SVG Version: 6.00 Build 0)  -->
<svg version="1.1" id="图层_1" xmlns="http://www.w3.org/2000/svg" xmlns:xlink="http://www.w3.org/1999/xlink" x="0px" y="0px"
	 viewBox="0 0 50 50" style="enable-background:new 0 0 50 50;" xml:space="preserve">
<style type="text/css">
	.st0{fill:#F56A6A;}
</style>
<path class="st0" d="M23.2,15.4c0.5,0,0.9,0.1,1.3,0.5c0.3,0.3,0.5,0.7,0.5,1.2v1.4c0,0.5-0.1,0.9-0.5,1.3c-0.4,0.4-0.7,0.5-1.3,0.5
	h-1.4c-0.5,0-0.9-0.1-1.2-0.5c-0.3-0.3-0.5-0.7-0.5-1.3v-1.4c0-0.5,0.1-0.9,0.5-1.2c0.4-0.3,0.7-0.5,1.2-0.5H23.2z M41.8,15.4
	c0.5,0,0.9,0.1,1.2,0.5c0.3,0.3,0.5,0.7,0.5,1.2v1.4c0,0.5-0.1,0.9-0.5,1.3c-0.4,0.4-0.7,0.5-1.2,0.5H30.3c-0.5,0-0.9-0.1-1.3-0.5
	c-0.3-0.3-0.5-0.7-0.5-1.3v-1.4c0-0.5,0.1-0.9,0.5-1.2c0.4-0.3,0.7-0.5,1.3-0.5H41.8z M23.2,23.8c0.5,0,0.9,0.1,1.3,0.5
	c0.3,0.4,0.5,0.7,0.5,1.3V27c0,0.5-0.1,0.9-0.5,1.2c-0.4,0.3-0.7,0.5-1.3,0.5h-1.4c-0.5,0-0.9-0.1-1.2-0.5c-0.3-0.4-0.5-0.7-0.5-1.2
	v-1.3c0-0.5,0.1-0.9,0.5-1.3c0.4-0.4,0.7-0.5,1.2-0.5L23.2,23.8L23.2,23.8z M41.8,23.8c0.5,0,0.9,0.1,1.2,0.5
	c0.3,0.4,0.5,0.7,0.5,1.3V27c0,0.5-0.1,0.9-0.5,1.2c-0.4,0.3-0.7,0.5-1.2,0.5H30.3c-0.5,0-0.9-0.1-1.3-0.5c-0.3-0.4-0.5-0.7-0.5-1.2
	v-1.3c0-0.5,0.1-0.9,0.5-1.3c0.4-0.3,0.7-0.5,1.3-0.5L41.8,23.8L41.8,23.8z M23.2,32.2c0.5,0,0.9,0.1,1.3,0.5C24.8,33,25,33.5,25,34
	v1.4c0,0.5-0.1,0.9-0.5,1.3c-0.4,0.3-0.7,0.5-1.3,0.5h-1.4c-0.5,0-0.9-0.1-1.2-0.5c-0.3-0.4-0.5-0.7-0.5-1.3V34
	c0-0.5,0.1-0.9,0.5-1.2c0.4-0.4,0.7-0.5,1.2-0.5H23.2z M41.8,32.2c0.5,0,0.9,0.1,1.2,0.5c0.3,0.3,0.5,0.7,0.5,1.2v1.4
	c0,0.5-0.1,0.9-0.5,1.3c-0.4,0.3-0.7,0.5-1.2,0.5H30.3c-0.5,0-0.9-0.1-1.3-0.5c-0.3-0.4-0.5-0.7-0.5-1.3V34c0-0.5,0.1-0.9,0.5-1.2
	c0.4-0.4,0.7-0.5,1.3-0.5H41.8z"/>
</svg>
