<?xml version="1.0" standalone="no"?><!DOCTYPE svg PUBLIC "-//W3C//DTD SVG 1.1//EN" "http://www.w3.org/Graphics/SVG/1.1/DTD/svg11.dtd"><svg t="1644417233437" class="icon" viewBox="0 0 1024 1024" version="1.1" xmlns="http://www.w3.org/2000/svg" p-id="9902" xmlns:xlink="http://www.w3.org/1999/xlink" width="200" height="200"><defs><style type="text/css"></style></defs><path d="M807.940267 77.44h-529.066667c-51.2 0-93.013333 41.813333-93.013333 93.013333v481.706667c0 64.853333-43.52 129.28-75.52 176.213333-28.16 41.813333-46.933333 69.12-32.853334 95.573334 5.546667 10.24 17.493333 22.613333 44.8 22.613333h87.893334c33.706667 0 60.16-33.706667 78.08-66.986667l0.426666 37.546667c0 16.213333 13.653333 29.44 29.866667 29.44h539.733333c51.2 0 93.013333-41.813333 93.013334-93.013333V223.786667l-143.36-146.346667z m84.053333 171.093333v8.533334c-2.133333-0.426667-4.693333-0.853333-6.826667-0.853334h-92.16c-3.84 0-6.826667-2.986667-6.826666-6.826666v-104.96c0-1.28 0-2.56-0.426667-3.84l106.24 107.946666z m-612.693333-111.36h448.426666c-0.426667 2.133333-0.853333 4.693333-0.853333 6.826667v104.96c0 36.693333 29.866667 66.56 66.56 66.56h92.16c2.56 0 4.693333-0.426667 6.826667-0.853333v118.186666h-73.813334-101.12H617.646933h-0.426666-0.426667-101.12-101.12-101.12-68.266667v-262.4c0.853333-18.346667 15.786667-33.28 34.133334-33.28z m66.56 483.413334l-1.28-128h40.96l3.84 394.666666h-40.96l-2.56-266.666666z m99.84-128h40.96l3.84 394.666666h-40.96l-3.84-394.666666z m100.693333 0h40.96l3.84 394.666666h-40.96l-3.84-394.666666z m101.12 0h40.96l3.84 394.666666h-40.96l-3.84-394.666666z m100.693333 0h40.96l3.84 394.666666h-40.96l-3.84-394.666666z m-539.306666 394.666666h-65.28c5.12-8.106667 11.093333-17.066667 16.64-25.173333 34.133333-50.346667 85.76-126.293333 85.76-209.493333v-160h39.253333l1.28 128c-0.426667 153.173333-56.746667 256.426667-77.653333 266.666666z m649.813333 0h-5.973333l-3.84-394.666666h43.093333v360.96c0 18.773333-14.933333 33.706667-33.28 33.706666z" p-id="9903" fill="#f56a6a"></path></svg>