<?xml version="1.0" encoding="utf-8"?>
<!-- Generator: Adobe Illustrator 26.0.1, SVG Export Plug-In . SVG Version: 6.00 Build 0)  -->
<svg version="1.1" id="图层_1" xmlns="http://www.w3.org/2000/svg" xmlns:xlink="http://www.w3.org/1999/xlink" x="0px" y="0px"
	 viewBox="0 0 200 200" style="enable-background:new 0 0 200 200;" xml:space="preserve">
<style type="text/css">
	.st0{fill:#F56A6A;}
</style>
<path class="st0" d="M171.3,62.3c0-4.4-1.6-8.5-4.7-11.7c-3.1-3.1-7.2-4.9-11.6-4.9c-4.4,0-8.5,1.6-11.7,4.7l-6.1,6
	c-5-4.5-10.8-8.1-17.2-10.5l0.1-13.4c0.1-10.8-8.6-19.6-19.3-19.7C90,12.8,81.1,21.5,81,32.3l-0.1,13.4c-3.2,1.2-6.3,2.6-9.2,4.4
	c-2.9,1.7-5.7,3.7-8.2,5.9l-6-6.1c-3.1-3.1-7.2-4.9-11.6-4.9c-4.4,0-8.5,1.6-11.7,4.7c-3.1,3.1-4.9,7.2-4.9,11.6
	c0,4.4,1.6,8.5,4.7,11.7l11.8,12c-1,4.1-1.6,8.4-1.6,12.8l-0.1,17.5c-0.1,8.7,1.9,16.9,5.4,24.3l-6.4,6.3c-3.7,3.6-5.7,8.4-5.7,13.5
	c0,5.1,1.9,9.9,5.5,13.6c3.6,3.7,8.4,5.7,13.5,5.7c5.1,0,9.9-1.9,13.6-5.5l6.9-6.7c3,1.4,6.2,2.5,9.4,3.3l3.2,8.4
	c3.1,8,7.5,9.2,9.9,9.2c2.4,0,6.9-1.1,10.1-9.1l3.3-8.3c3.3-0.8,6.5-1.8,9.5-3.2l6.7,6.9c3.6,3.7,8.4,5.7,13.5,5.7
	c5.1,0,9.9-1.9,13.6-5.5c7.5-7.4,7.6-19.6,0.2-27.1l-6.3-6.4c1.8-3.7,3.2-7.6,4.2-11.6c1-4.1,1.5-8.3,1.5-12.6l0.1-17.5
	c0-4.4-0.4-8.7-1.4-12.8l12-11.8C169.5,70.8,171.3,66.7,171.3,62.3L171.3,62.3z M147.9,98.5l0,4.8l-18.3-0.1L118.7,84l12.9-21.9
	C141.7,71,148,84,147.9,98.5L147.9,98.5z M122.7,107l-11.5,19.6l-22.7-0.2l-11.2-19.8l11.5-19.6l22.7,0.2L122.7,107z M88.9,34.8
	c0.6,0.5,1.4,0.8,2.3,0.8c2.1,0,3.7-1.6,3.7-3.7c0-2.1-1.6-3.7-3.7-3.7c-0.6,0-1.2,0.1-1.7,0.4c1.6-4.6,6-7.9,11.1-7.8
	c5.1,0,9.4,3.4,11,8c-0.5-0.3-1.1-0.4-1.7-0.4c-2.1,0-3.7,1.6-3.7,3.7c0,2.1,1.6,3.7,3.7,3.7c0.9,0,1.7-0.3,2.3-0.8l-0.1,8.6
	c-1.9-0.4-3.8-0.7-5.7-1c-1.9-0.2-3.9-0.3-5.9-0.4c-4,0-7.9,0.3-11.6,1.1L88.9,34.8L88.9,34.8z M87.6,51.8c4.1-1.1,8.4-1.7,12.8-1.6
	c9.1,0.1,17.6,2.7,24.8,7.2l-12.9,22l-23.5-0.2L76,56.7C79.6,54.6,83.5,52.9,87.6,51.8z M69.5,61.2l12.4,21.9l-11.5,19.6l-18.3-0.1
	l0-4.8C52.3,83,59,69.9,69.5,61.2L69.5,61.2z M48.6,76.4l-8.9-9.1c-1.6-1.6-2.5-3.8-2.5-6.1c0-2.3,0.9-4.4,2.6-6
	c1.6-1.6,3.8-2.5,6.1-2.5c2.3,0,4.4,0.9,6.1,2.6l6.1,6.2C54.1,65.9,50.9,70.9,48.6,76.4z M64.3,167.5c-2.1,2.1-5,3.3-8,3.2
	s-5.8-1.2-7.9-3.4s-3.3-5-3.2-8c0-3,1.2-5.8,3.4-7.9l4.9-4.9c2.1,3.1,4.5,6.1,7.2,8.7c2.7,2.7,5.6,5,8.8,7.1
	C69.5,162.4,64.3,167.5,64.3,167.5z M69.3,152.4c-5.3-4.4-9.7-10-12.7-16.3c-3-6.3-4.7-13.4-4.6-20.9l0-4.8l18.3,0.1L81.9,131
	C81.9,131,69.3,152.4,69.3,152.4z M102,175.3c-1.1,2.9-2.3,3.9-2.7,4.1c-0.4-0.2-1.5-1.3-2.6-4.1l-1.5-4.1c1.4,0.1,2.8,0.2,4.2,0.2
	c1.4,0,2.8,0,4.2-0.1C103.6,171.3,102,175.3,102,175.3z M121.9,158.1L121.9,158.1c-0.4,0.2-0.9,0.4-1.3,0.6
	c-6.4,3.1-13.6,4.8-21.1,4.8c-7.6-0.1-14.7-1.9-21.1-5.1c-0.4-0.2-0.9-0.4-1.3-0.7c-0.5-0.3-1-0.5-1.4-0.8L89,134.3l22,0.2
	l12.8,22.5C123.2,157.4,122.6,157.8,121.9,158.1z M117.9,130.6l11.5-19.6l18.3,0.1l0,4.8c-0.1,14.7-6.9,27.8-17.4,36.5
	C130.3,152.5,117.9,130.6,117.9,130.6z M150.6,152.3c4.4,4.4,4.3,11.6-0.1,15.9c-2.1,2.1-5,3.3-8,3.2c-3,0-5.8-1.2-7.9-3.4l-5.1-5.2
	c3.2-2,6.2-4.3,8.9-7c2.7-2.6,5.2-5.5,7.4-8.6L150.6,152.3z M160.8,68.3l-9.1,8.9c-1.1-2.8-2.5-5.4-4-7.9c-1.5-2.5-3.2-4.9-5.1-7.2
	l6.2-6.1c1.6-1.6,3.8-2.5,6.1-2.5c2.3,0,4.5,0.9,6.1,2.6c1.6,1.6,2.5,3.8,2.5,6.1C163.4,64.5,162.5,66.7,160.8,68.3L160.8,68.3z"/>
</svg>
